<svg width="123" height="20" viewBox="0 0 123 20" fill="none" xmlns="http://www.w3.org/2000/svg">
<path d="M10.1966 19.7178C10.273 19.6957 10.5866 19.705 10.7099 19.6876C10.5899 19.8599 9.92089 19.7978 10.1966 19.7178ZM22.6443 6.8894C22.5396 6.93845 22.4352 6.98749 22.3309 7.03651C22.639 7.03564 23.0504 6.97055 23.341 6.98321C23.3885 6.98544 23.2766 7.11083 23.3882 7.10629C23.5 7.10171 23.4648 6.94671 23.6255 6.91584C23.8049 6.88176 24.6524 6.9183 24.9457 6.89021C26.0222 6.78619 27.0825 6.60418 28.1831 6.5748C27.069 6.78796 28.2106 6.80835 28.5237 6.73067C28.5915 6.7131 28.5632 6.42165 29.6742 6.39989C30.3852 6.38561 29.7651 6.85903 30.9332 6.54808C29.9959 6.33487 30.8922 6.27831 31.6126 6.20665C31.737 6.19421 32.746 6.15173 33.1748 6.10196C33.3236 6.08468 33.5382 5.91238 33.7366 5.89135C33.8731 5.87698 33.9838 5.95164 34.1871 5.92995C35.1307 5.83018 36.0945 5.74128 37.0298 5.68995C36.511 6.12968 37.4777 5.82029 37.5245 5.83522C37.759 5.92259 36.7415 6.03993 37.1505 6.0722C37.7128 6.01199 38.2783 5.95157 38.8467 5.89095C38.3752 5.88252 39.4375 5.50766 39.6503 5.61899C39.5473 5.27821 42.2467 5.70272 42.6524 5.5518C42.7358 5.52009 42.1626 5.39586 43.4635 5.36483C43.6046 5.36168 43.5603 5.47085 43.6332 5.45486C43.6758 5.44535 43.9193 5.08968 44.2138 5.24997C44.3222 5.30841 43.6847 5.58227 45.116 5.37301C44.5114 5.08292 47.1035 5.02075 47.5939 5.06509C47.4945 5.02764 47.395 4.99018 47.2957 4.95272C47.7789 5.03568 47.8551 4.91333 47.9624 4.91064C48.3928 4.89985 48.9817 4.96727 49.378 4.92337C49.8409 4.87229 49.8247 4.66156 50.3741 4.69804C50.2414 4.66236 50.1088 4.62667 49.9763 4.59097C50.3515 4.5708 50.7277 4.55059 51.1046 4.53032C50.2578 4.88192 51.2932 4.52792 51.363 4.51606C51.4735 4.4966 51.323 4.62412 51.5081 4.59433C51.5272 4.59038 51.4902 4.48523 51.7767 4.44914C52.3764 4.37399 52.2904 4.51728 52.5398 4.49491C52.5626 4.4923 52.4744 4.40215 52.9029 4.34333C54.2669 4.15614 52.9019 4.41812 52.8509 4.43586C52.7831 4.45932 53.2877 4.82464 52.1112 4.7784C52.5088 4.79118 52.56 4.96723 52.6049 4.96795C52.6439 4.96838 53.318 4.88673 53.3551 4.87744C53.683 4.78886 53.3798 4.69092 53.4428 4.66359C53.4942 4.64149 54.3249 4.73285 54.4867 4.34877C54.9073 4.65562 54.286 4.67599 53.6351 4.78279C53.5452 4.86044 54.2711 4.86816 54.3092 4.86481C55.2404 4.78666 54.7017 4.55032 54.8905 4.35485C54.9898 4.25254 55.386 4.41143 55.0141 4.19023C55.8594 4.09332 55.3575 4.28116 55.414 4.29809C55.4992 4.32277 55.7902 4.22632 55.8282 4.23278C55.884 4.2424 55.7014 4.34487 55.9192 4.35752C55.9554 4.35899 56.29 4.18097 55.8367 4.14683C56.4361 4.11839 56.3773 3.99519 56.5986 4.23496C56.9654 3.71615 56.9178 4.49715 57.0805 4.51102C57.5132 4.54726 57.3579 4.17672 57.3789 4.15628C57.5239 4.02441 58.7197 4.0571 59.0101 3.97785C58.9164 4.26175 58.0693 4.05871 57.8899 4.12716C57.2908 4.35503 58.7666 4.19263 58.3493 4.57419C58.5285 4.46405 58.7079 4.35391 58.8875 4.24375C59.2497 4.43691 58.7693 4.57389 59.6889 4.41637C59.8245 4.21259 59.0365 4.5007 59.1858 4.33667C59.2737 4.24039 59.8094 4.177 59.8162 4.12951C59.8221 4.07252 59.342 4.17915 59.4114 4.08652C59.5622 3.88651 61.352 3.9173 60.0093 4.13046C60.3848 4.09626 60.6134 4.45036 60.9257 4.3084C61.129 4.21622 59.9086 3.80169 61.6839 3.74984C61.7358 3.92167 60.9811 3.85974 60.9632 3.87464C60.9376 3.89625 61.1047 4.2799 61.1296 4.29746C61.2163 4.35486 63.0073 3.99461 63.4082 4.1614C63.2371 3.94573 64.7777 4.00799 64.9392 3.92481C64.982 3.90198 64.8048 3.7758 64.851 3.75713C65.1391 3.64488 65.9504 3.8296 66.3199 3.8059C66.7329 3.77951 66.6709 3.66307 66.694 3.66142C66.8761 3.65331 66.7377 3.747 66.8487 3.7377C67.016 3.72361 68.1719 3.64614 68.2288 3.62433C68.2454 3.61762 68.0454 3.49512 68.2953 3.44842C68.3387 3.44032 68.3239 3.60607 69.0654 3.4746C69.9584 3.31642 68.4239 3.32218 68.7839 3.12053C69.382 3.31721 69.3432 3.07722 69.5005 3.08352C69.555 3.08605 69.9729 3.25879 70.4082 3.21035C70.0977 3.26914 69.7875 3.32791 69.4775 3.38669C69.7877 3.3977 70.3818 3.30455 70.6389 3.32463C70.7643 3.33438 70.676 3.51139 70.9446 3.485C71.0017 3.47847 71.1947 3.04902 70.5051 3.29067C70.4369 3.14846 70.7798 3.21682 70.9321 3.16268C70.9551 3.1543 71.028 2.90155 71.2392 3.03782C71.2901 3.07145 70.8276 3.82891 72.1272 3.20247C72.1691 3.18228 72.0115 3.10487 72.0523 3.08288C72.0801 3.06796 72.4258 3.07645 72.4626 3.06067C72.5003 3.0439 72.3268 2.9595 72.3714 2.93652C72.5997 2.81822 72.9416 3.18099 72.4516 3.1909C72.6184 3.22565 72.7853 3.2604 72.9523 3.29515C72.7541 3.01693 73.2017 3.19218 73.4268 3.16493C74.8649 2.99087 73.8834 2.87876 74.1235 2.76036C74.509 2.57026 74.2451 3.0951 74.8244 2.89707C74.8781 2.87861 74.1454 2.72388 75.5522 2.73116C75.3465 2.75604 75.141 2.78093 74.9355 2.80582C75.0771 3.079 75.6786 2.72644 75.7265 2.7186C76.2724 2.63559 75.9092 2.76739 76.7134 2.5562C76.7853 2.53727 76.9497 2.5943 77.1028 2.54697C77.7375 2.35166 76.243 2.52842 76.1932 2.41725C76.1689 2.3627 77.7822 2.24736 77.84 2.26958C78.0846 2.36879 77.1129 2.38024 77.3089 2.51205C77.3821 2.55847 79.6657 2.26797 80.1309 2.28834C80.6675 2.3123 80.9374 2.67664 80.9064 2.24557C81.0902 2.65647 81.1997 2.3574 81.2679 2.35489C82.0931 2.32856 82.096 2.33264 82.797 2.23618C82.9517 2.21503 83.0932 2.33291 83.1465 2.30688C83.1774 2.29125 83.1067 2.15869 83.2601 2.10388C83.4733 2.0286 84.794 2.06607 84.8975 2.1343C85.0008 2.20249 84.347 2.21099 84.4734 2.32657C84.9452 2.3019 85.3944 2.23531 85.8696 2.21102C86.0669 2.2013 85.9727 2.29664 86.0579 2.29166C86.0942 2.28987 86.7682 2.1593 86.7369 2.12936C86.6634 2.05968 84.5675 2.27597 85.1084 2.07941C85.2127 2.04143 85.6055 2.21293 85.5262 1.9729C87.4073 1.8801 89.2868 1.78825 91.1666 1.69727C90.1036 1.96449 88.8778 1.89582 87.7504 2.00179C87.5959 2.01607 87.0711 2.03364 87.1444 2.15235C88.1066 2.10877 89.295 1.95061 90.2229 1.95913C90.2526 1.95949 90.1531 2.07912 90.2649 2.08809C90.474 2.10479 91.1323 1.87297 91.2489 1.91051C91.2691 1.9198 90.898 2.09623 91.0216 2.18026C91.3389 2.39592 91.3732 1.8607 91.6308 1.8469C91.8301 1.83643 93.1854 1.98836 93.5052 1.80087C93.8454 1.60103 92.5135 1.77731 92.6013 1.62874C93.4955 1.41665 94.4233 1.49678 95.2761 1.41304C95.2911 1.41142 95.1519 1.3111 95.3413 1.2809C95.6709 1.22835 95.7697 1.3783 95.9336 1.39085C96.1102 1.40402 96.7255 1.33396 96.8124 1.38472C96.8235 1.3914 96.7105 1.55642 96.6919 1.56225C96.4281 1.64701 96.317 1.45273 96.2923 1.45203C96.1999 1.45148 96.1155 1.53569 96.0313 1.53757C95.8926 1.54057 95.8111 1.47497 95.629 1.48271C95.5033 1.48779 95.6349 1.61566 95.5135 1.61873C95.469 1.6193 94.9661 1.34299 94.9462 1.66631C94.938 1.7681 98.8701 1.59516 99.2532 1.48503C98.9148 1.47228 98.5762 1.45958 98.2374 1.44693C98.9266 1.48813 99.7252 1.16989 99.812 1.5436C102.348 1.38056 104.874 1.22009 107.41 1.06096C107.864 1.05936 107.635 1.32087 108.371 1.19464C108.174 1.13155 107.976 1.06848 107.779 1.00542C108.162 1.03123 109.857 1.01137 110.129 0.940816C110.164 0.931612 110.197 0.707965 110.618 0.657675C110.992 0.613152 111.064 0.77351 111.266 0.790236C111.436 0.803825 111.622 0.746679 111.672 0.75209C111.711 0.756544 111.733 0.856201 111.827 0.86697C112.121 0.899829 111.865 0.633468 112.177 0.938012C112.108 0.955612 112.038 0.973217 111.969 0.990823C112.323 1.01207 112.812 1.12472 112.302 1.23578C112.214 1.25493 112.283 1.1518 112.217 1.15685C109.626 1.36707 111.712 1.40289 112.606 1.18462C112.848 1.31196 114.151 1.12733 114.198 1.15255C114.262 1.18933 114.046 1.3213 114.348 1.39936C114.412 1.41576 116.157 1.2067 115.541 1.44485C115.414 1.49393 114.571 1.51388 114.368 1.53448C114.868 1.80556 115.952 1.28525 116.077 1.28741C116.586 1.29823 115.126 1.62369 116.267 1.57614C117.143 1.5397 116.308 1.39506 116.637 1.28328C116.823 1.22046 117.826 1.37405 117.779 1.08425C118.119 1.02824 117.93 1.19725 117.973 1.20529C118.015 1.21203 118.681 1.07598 118.904 1.12175C118.931 1.12748 118.858 1.28512 118.887 1.29555C118.941 1.31293 119.586 1.23593 119.611 1.22123C119.627 1.21111 119.463 1.08947 119.524 1.05271C119.596 1.01024 120.219 0.996754 120.25 0.956367C120.295 0.895484 119.531 0.988501 119.648 0.830858C120.004 0.842718 120.572 0.702333 120.796 0.566147C120.742 0.604402 120.4 0.633866 120.28 0.630372C120.321 0.408896 121.055 0.359173 120.816 0.549271C120.969 0.445415 120.857 0.404192 120.94 0.310534C120.962 0.286748 121.188 0.265972 121.229 0.225207C121.234 0.217297 120.995 0.151999 121.039 0.104487C121.118 0.0185843 121.805 -0.0125117 121.862 0.00445366C122.024 0.0525112 121.471 0.164205 121.43 0.25927C121.425 0.273814 121.913 0.419569 121.921 0.434943C121.961 0.603244 121.424 0.51831 121.495 0.667335C121.628 0.690364 121.761 0.713408 121.894 0.736465C121.402 0.927674 120.461 0.914964 120.231 1.10901C120.979 1.0024 121.761 0.952711 121.788 1.35059C121.8 1.51813 121.484 1.63941 121.5 1.68111C121.558 1.83009 121.994 1.63253 122.011 1.63942C122.025 1.64774 122.032 1.65633 122.033 1.66514C122.033 1.66514 122.033 1.66514 122.033 1.66515C122.039 1.75436 121.406 1.86424 121.376 1.90729C121.328 1.98351 121.633 2.26106 121.638 2.32698C121.629 2.34092 121.179 2.44399 121.341 2.54798C121.504 2.65299 121.902 2.6271 121.917 2.63819C121.998 2.70222 121.307 2.81537 121.289 2.85792C121.279 2.87944 121.662 2.98012 121.676 3.01599C121.688 3.05209 121.409 3.15265 121.306 3.27674C121.228 3.36895 121.476 3.41763 121.434 3.43421C121.405 3.44533 120.746 3.49111 120.714 3.50862C120.668 3.53451 120.83 3.62646 120.809 3.65384C120.78 3.69318 120.564 3.67129 120.595 3.70743C120.618 3.7343 121.468 4.03035 121.469 4.12566C121.471 4.28815 120.572 3.97839 121.43 4.5588C121.436 4.56259 121.63 4.50305 121.636 4.5066C121.766 4.61538 121.146 4.84143 121.917 4.75446C120.492 5.06166 121.756 5.01054 121.562 5.29831C121.488 5.40892 120.932 5.4922 120.93 5.50813C120.994 5.6371 121.165 5.52126 121.23 5.58207C121.266 5.61607 120.776 5.79248 120.895 5.87562C120.957 5.91843 121.486 5.86363 121.509 5.87125C121.725 5.94271 121.474 6.05431 121.525 6.11244C121.558 6.15143 121.878 6.1318 121.887 6.13863C121.902 6.15308 121.48 6.3506 121.393 6.4156C121.327 6.46555 121.591 6.51755 121.544 6.54062C121.264 6.67867 120.626 6.42367 121.25 6.80041C121.288 6.82352 121.511 6.79705 121.518 6.80171C121.665 6.91065 121.253 6.95053 121.186 7.05317C121.071 7.22998 121.658 7.09386 121.173 7.24724C121.551 7.33032 121.757 7.31095 122.188 7.24946C120.996 7.42049 120.602 7.88515 121.933 7.77874C121.51 7.80227 121.574 8.04395 121.448 8.05731C121.37 8.06531 120.737 7.86591 121.058 8.39223C121.099 8.45796 121.466 8.34441 121.359 8.49255C120.46 8.52128 121.346 8.58281 121.348 8.60124C121.362 8.92377 119.146 8.81831 118.767 8.88285C118.328 8.95745 117.961 9.23916 117.866 9.24639C117.555 9.26917 117.804 9.12155 117.731 9.07926C117.657 9.03743 116.787 9.34889 116.741 9.33862C116.565 9.29676 116.729 9.13137 116.71 9.12497C116.491 9.04693 115.303 9.25402 114.964 9.24329C114.981 9.34152 115.656 9.29996 115.247 9.48984C114.77 9.71121 114.71 9.27684 114.696 9.25857C112.462 9.42692 110.209 9.59848 107.98 9.76986C108.026 9.99986 109.474 9.7154 109.509 9.74357C109.718 9.9098 107.25 10.0914 106.938 10.0325C107.173 10.0653 107.407 10.0981 107.641 10.131C107.268 10.4274 106.37 10.1462 105.808 10.3072C105.626 10.3594 105.988 10.4356 105.981 10.4432C105.782 10.5625 105.443 10.5078 105.682 10.3498C105.185 10.5215 105.25 10.3686 104.862 10.3868C104.842 10.3878 105.016 10.483 104.714 10.5508C104.573 10.5825 103.808 10.6408 103.713 10.7428C103.674 10.7856 104.093 11.1739 104.114 10.8108C104.958 10.923 104.367 10.6268 104.691 10.6106C104.74 10.6088 104.641 10.818 105.447 10.6621C105.319 11.0357 104.364 10.8359 104.206 10.8919C103.882 11.0071 105.259 11.0907 105.489 10.7897C105.392 11.081 105.589 10.8204 105.895 10.8089C106.23 10.7963 106.091 10.8914 106.272 10.8782C106.766 10.8431 106.546 10.6592 106.967 10.8082C106.528 10.2817 107.658 10.6823 107.987 10.8043C107.472 10.8713 106.955 10.9386 106.438 11.0059C106.47 11.0329 106.502 11.0599 106.534 11.0869C106.397 11.093 106.26 11.0992 106.123 11.1054C106.143 11.0757 106.162 11.0461 106.182 11.0164C105.49 11.2517 105.303 11.0602 105.246 11.0622C104.508 11.0941 103.656 11.1605 102.909 11.2167C102.796 11.2252 102.887 11.4013 102.059 11.3211C101.795 11.2956 102.03 11.1352 101.736 11.179C101.395 11.5922 101.379 11.2846 101.269 11.2926C100.952 11.3168 100.769 11.4268 100.739 11.43C100.352 11.4746 99.7811 11.5024 99.3548 11.5494C99.3468 11.5514 99.5783 11.6526 99.298 11.6389C99.1996 11.6339 98.286 11.1964 97.5328 11.42C97.7346 11.4387 97.9363 11.4574 98.138 11.4762C97.9005 11.4465 96.2687 11.7005 96.6806 11.8046C96.9331 11.8681 97.5085 11.4964 97.5985 11.8043C97.043 11.7527 94.0452 12.1259 93.8038 12.0717C93.7706 12.0639 93.9624 11.9468 93.9165 11.9373C93.8811 11.9301 93.1926 12.0079 93.0979 11.9761C93.0415 11.9572 93.3418 11.8712 93.3141 11.8365C93.2904 11.8121 92.4246 11.8359 92.3853 11.967C92.5932 11.8994 93.1918 11.8976 92.888 12.0292C92.8489 12.0456 92.6344 11.9798 92.587 12.0005C92.1465 12.1916 93.4961 12.0488 93.7054 12.0338C92.8685 12.262 91.5401 12.1734 90.5649 12.3562C90.1591 12.2814 91.1415 12.148 90.6849 12.0955C89.7376 11.9867 90.4481 12.2614 90.4202 12.2771C90.1969 12.4021 89.3625 11.8915 89.3963 12.3273C89.0529 12.2883 89.1581 12.2247 88.6852 12.3193C88.7503 12.3445 88.8155 12.3698 88.8807 12.395C88.3706 12.6891 87.1986 12.1407 87.2787 12.0855C87.4947 11.9376 88.0949 12.0944 88.1444 12.0856C88.2177 12.0726 88.3871 11.6142 89.2264 11.9461C89.5341 11.6235 87.9296 11.8467 88.6472 11.5868C88.1548 11.6588 86.0994 11.6133 85.8165 11.7668C85.7828 11.7865 85.9692 12.0691 85.4538 11.9586C85.2091 11.9059 85.7852 11.8568 85.6705 11.7981C85.3185 11.6177 80.7491 12.114 79.8822 12.1948C79.8258 12.1996 79.8392 12.1062 79.7838 12.1115C79.6136 12.1277 79.0057 12.314 78.6965 12.2963C79.3432 12.4153 78.1147 12.5271 77.801 12.5335C77.3245 12.5432 77.3409 12.3794 77.1334 12.3616C76.3334 12.2927 75.1439 12.7742 74.5042 12.4654C74.5669 12.8181 73.4273 12.377 72.9295 12.4142C72.5393 12.4432 71.9933 12.7243 72.5308 12.825C71.8567 12.8631 71.1552 12.9868 70.5281 13.0596C70.4244 13.0716 70.559 12.9549 70.3824 12.9788C70.3665 12.9817 70.3526 13.0866 70.2013 13.1097C68.9441 13.3024 69.5415 13.0334 69.2996 12.9883C69.1643 12.9631 69.0652 12.9531 68.993 12.9531C69.7291 12.8728 70.5737 12.7634 70.7988 12.7421C70.5896 12.5301 69.1722 12.9184 68.7459 12.8916C68.7311 12.8906 68.7718 12.7611 68.7569 12.7614C68.7566 12.7614 68.7563 12.7614 68.756 12.7615C68.597 12.7647 67.5969 12.893 67.8158 13.0256C67.8745 13.061 68.3363 13.0232 68.8842 12.9649C68.7379 13.005 68.8603 13.1364 68.8346 13.1445C68.5222 13.2399 67.7333 13.1663 67.4565 13.1703C67.3932 13.1714 67.4051 13.261 67.3948 13.2621C67.1426 13.2621 67.2244 12.9968 66.9892 13.2828C66.5096 12.9996 67.8352 13.1657 67.7266 12.9653C67.6422 12.8109 64.7556 13.1338 64.7808 13.3858C64.7685 13.3596 64.7258 13.3294 64.6407 13.2981C64.4517 13.2284 63.646 13.3212 63.5108 13.3791C63.4881 13.3902 63.5176 13.6343 63.4886 13.6389C63.416 13.6505 62.4153 13.5397 62.0608 13.7146C62.2617 13.7326 62.4628 13.7505 62.6641 13.7685C61.4667 13.8693 61.6587 13.9269 62.0629 13.9672C62.0829 13.9662 62.1031 13.9739 62.1222 13.9734C62.4356 14.002 62.8368 14.0215 62.8444 14.0403C62.8728 14.1121 60.8446 14.3206 61.2152 14.0614C61.2702 14.0256 62.2168 14.0493 61.7388 13.9256C61.657 13.9038 61.0517 14.0003 61.0183 13.985C60.7961 13.8838 62.1065 13.6168 61.9298 13.4615C61.6247 13.6484 61.2042 13.5979 60.8375 13.67C60.6708 13.7026 60.6397 13.8288 60.6191 13.8328C60.3118 13.8904 60.4751 13.7474 60.3719 13.7591C60.3165 13.766 59.7294 14.0903 59.8134 13.7032C57.8317 14.1468 59.2792 14.0266 60.5117 13.9034C60.1328 14.0732 59.3644 14.0697 59.0257 14.1299C58.9041 14.1517 58.9871 14.2716 58.7823 14.314C58.3627 14.4009 56.3149 14.4251 55.7776 14.4355C56.1006 14.3638 55.9936 14.2346 55.7423 14.265C55.4911 14.2955 55.718 14.4611 55.6705 14.4849C55.6189 14.5097 54.4322 14.5214 54.2392 14.5615C55.1198 14.4213 54.9082 14.3011 54.1552 14.3494C54.2605 14.301 54.3659 14.2525 54.4714 14.204C54.0336 14.2963 53.0972 14.1642 52.8428 14.248C52.8032 14.2614 52.9579 14.3643 52.9357 14.3718C52.7136 14.4396 51.9374 14.3863 51.9054 14.4286C51.8779 14.4638 52.2125 14.5329 52.0953 14.5906C52.0708 14.6027 51.7429 14.4735 51.4368 14.5376C51.3232 14.5613 51.4014 14.6643 51.3731 14.673C51.1367 14.7455 51.2632 14.5504 50.8262 14.6167C50.5062 14.6654 50.2818 14.8646 49.8339 14.8425C51.3095 14.9487 50.0757 14.9561 49.4749 15.0762C49.3781 15.0955 49.4799 15.2858 48.8884 15.2387C50.098 14.7774 48.5192 15.0795 48.1847 15.1038C48.1666 15.1041 48.1494 14.9743 47.9879 14.9858C47.9742 14.9871 48.0012 15.0735 47.8519 15.0928C46.4383 15.2759 47.3373 15.1001 47.0605 15.0359C46.9426 15.0086 46.2659 15.191 46.082 15.2096C46.0396 15.2135 46.0513 15.1203 45.8875 15.1378C45.5979 15.1688 45.3467 15.2881 45.1565 15.3119C45.1333 15.3143 45.1243 15.1697 44.7607 15.2476C44.6582 15.2694 44.5463 15.3305 44.6969 15.3596C45.1954 15.4549 46.0798 15.1424 46.6388 15.2324C47.1462 15.3146 45.5804 15.4584 45.5009 15.4659C45.4711 15.4689 45.7697 15.3715 45.459 15.3834C45.195 15.3938 44.7303 15.6841 44.3244 15.6638C44.2935 15.6623 43.9567 15.478 43.9704 15.4644C43.9828 15.4543 44.4691 15.3669 44.3928 15.3118C44.3836 15.3055 44.0722 15.3333 44.0278 15.2912C43.9734 15.24 43.7933 14.7073 43.7258 14.6993C43.5527 14.68 43.674 14.7947 43.5631 14.7954C43.3251 14.7972 42.4959 14.7054 42.4858 14.8962C42.6212 14.896 42.7568 14.8958 42.8925 14.8955C42.1451 14.9784 42.4715 15.0316 42.3684 15.0759C42.2576 15.1239 42.2755 14.9554 42.0226 14.9612C41.9668 14.9624 40.9211 15.0861 40.9468 15.1539C41.5161 14.9941 41.3191 15.2171 41.346 15.2185C41.4487 15.2233 41.5687 15.0974 41.7055 15.0881C42.6684 15.0245 41.714 15.2881 41.945 15.3155C42.0244 15.3245 42.1719 15.2132 42.2056 15.2154C42.3149 15.2225 42.3275 15.3508 42.3987 15.3343C42.5648 15.296 42.3531 15.1309 42.3656 15.1203C42.5059 14.9938 43.108 15.0853 42.7575 15.3142C42.984 15.3668 42.9895 15.1243 43.1728 15.2055C43.5373 15.3663 43.0111 15.3616 42.8729 15.4051C42.3767 15.5619 42.2185 15.4824 41.5096 15.5744C41.2535 15.6074 40.9649 15.7494 40.8412 15.7664C40.7649 15.7769 40.0119 15.4318 40.0453 16.0693C39.7613 16.0315 39.2897 15.6497 39.0062 15.6931C38.7516 15.7324 38.8523 15.9504 38.8291 15.9611C38.7936 15.9779 38.4831 15.9865 38.3816 16.0272C38.2626 16.0751 38.3308 16.1558 38.1401 16.2073C37.6659 16.3352 37.6595 16.1045 37.6087 16.0938C37.0214 15.9703 37.3002 16.2754 37.1755 16.3124C37.0574 16.3467 35.3578 16.3654 35.0164 16.4779C35.1556 16.4197 35.2951 16.3614 35.4348 16.3031C35.1654 16.182 34.914 16.4387 34.8872 16.1824C34.8706 16.6014 34.3194 16.3695 34.1628 16.3937C34.1009 16.4035 34.1119 16.4737 34.0343 16.4834C33.733 16.5217 33.0399 16.5245 32.8715 16.5751C32.1607 16.7915 34.0322 16.8891 34.1698 16.893C33.8896 16.9124 32.2455 17.1471 33.0227 17.2811C33.143 17.3017 33.3369 17.0982 33.4018 17.0853C33.8347 17.0001 33.5052 17.1958 33.5409 17.2087C33.6012 17.2292 33.8756 17.0438 33.9535 17.0564C33.9795 17.0603 33.8284 17.2249 34.2475 17.1922C34.0564 17.3555 32.8617 17.3383 32.7032 17.3864C32.6488 17.4034 33.024 17.6853 31.9769 17.4702C31.9912 17.4981 32.0055 17.526 32.0198 17.554C31.4532 17.6147 30.8905 17.6752 30.3319 17.7353C30.3869 17.6634 30.6899 17.5023 30.2963 17.5649C30.07 17.601 30.2513 17.735 30.2309 17.7411C30.035 17.799 26.3662 18.0663 25.6576 18.1447C25.4133 18.1713 24.7479 18.3493 24.6973 18.3559C24.3895 18.3947 23.3058 18.4107 23.0958 18.446C22.9638 18.4684 23.101 18.5815 22.9817 18.586C22.871 18.5901 22.9748 18.4601 22.9416 18.4579C22.6614 18.4384 20.5551 18.7808 20.0637 18.7098C20.3628 18.7179 21.8622 18.3454 21.827 18.2632C21.8192 18.2522 21.4395 18.1933 21.3673 18.2445C21.2317 18.1516 20.8275 18.5057 20.589 18.4639C20.5621 18.4592 20.6498 18.2727 20.2317 18.2768C20.0861 18.2784 19.7323 18.4487 19.3357 18.3272C18.755 18.453 15.8998 18.4719 15.6826 18.6832C15.6773 18.6938 16.0982 18.723 15.8246 18.8259C15.4619 18.9626 15.7643 18.583 15.3298 18.5908C15.2616 18.5921 14.0787 18.7322 14.0451 18.757C13.7063 18.985 14.7413 18.974 14.7308 18.998C14.6982 19.0588 13.8464 19.1691 13.8123 19.1585C13.7782 19.1472 14.4475 18.8256 13.6248 18.9978C13.7224 19.0206 13.8203 19.0433 13.9185 19.066C13.5326 19.1612 13.4807 18.9841 13.3855 18.9815C13.0836 18.973 12.7699 19.2766 12.2577 18.9812C12.1219 18.9028 12.3253 18.7844 12.3082 18.7723C12.1437 18.6652 11.9768 19.0056 11.7267 18.7849C11.7086 18.7684 12.2255 18.577 11.2988 18.6588C11.3644 18.6763 11.43 18.6938 11.4958 18.7112C11.3655 18.7747 10.4503 18.8869 10.316 18.8865C9.9324 18.8847 10.2487 18.6894 9.86977 18.7431C10.1313 18.9489 8.9873 19.0806 9.03825 18.8789C8.89449 19.1393 7.94786 19.0327 7.48282 19.0684C7.18759 19.0912 6.60891 19.2511 6.51788 19.2466C6.40593 19.2411 6.42419 19.0705 6.22216 19.051C6.16133 19.0457 5.59535 19.2203 5.0613 19.0933C4.95359 19.0693 4.70991 18.8046 4.89681 18.7161C5.22978 18.5636 5.8205 18.7416 5.8045 18.5736C5.7759 18.395 4.99646 18.5727 4.75223 18.571C3.70558 18.5558 4.28803 18.3108 4.25507 18.2554C4.17238 18.1211 3.61669 18.1756 3.59381 18.1649C3.49318 18.1174 3.87459 17.9709 3.87345 17.8845C3.86947 17.7723 3.31985 17.6186 3.43741 17.5701C3.60353 17.5012 4.11261 17.6247 4.1443 17.6138C4.54644 17.4684 3.95786 17.2612 3.79402 17.1482C3.74386 17.1134 3.92393 17.0325 3.88424 17.0246C3.28021 16.904 3.79174 17.3985 3.40014 17.3977C3.05319 17.3968 3.48048 17.1873 3.46695 17.1791C3.44826 17.1704 3.03682 17.1982 2.96856 17.1439C2.92998 17.1171 3.97579 16.6903 3.92119 16.5462C3.5752 16.6102 3.2352 16.6737 2.90131 16.7367C2.85663 16.5463 3.35739 16.6442 3.40773 16.6196C3.50674 16.5705 3.21192 16.4987 3.21894 16.4366C3.22173 16.3973 3.54485 16.2287 3.23669 16.199C3.13062 16.1887 2.92682 16.3433 2.54092 16.239C3.82834 15.9449 2.91455 15.9181 2.86987 15.8533C2.82602 15.7884 3.43383 15.5715 2.6818 15.668C2.61558 15.2957 2.68667 15.548 2.89532 15.4627C3.15331 15.3577 2.52532 15.2898 3.50885 15.2956C3.43445 15.1252 2.65767 15.2078 2.61845 15.1972C2.5822 15.1877 2.74503 15.0859 2.68153 15.0621C1.9136 14.7892 2.43395 14.8985 2.19648 14.7014C2.17314 14.684 1.44706 14.6686 1.99181 14.5875C2.98311 14.44 3.37455 14.6558 3.49915 14.1081C2.76543 13.941 1.92912 14.363 1.69789 14.3898C1.35851 14.429 1.70086 14.2886 1.6563 14.2619C1.6404 14.2534 1.34945 14.2888 1.34518 14.2805C1.09181 13.8942 2.66741 14.1541 3.09966 14.044C2.9699 13.9944 2.84094 13.9448 2.71277 13.8951C2.87899 13.8776 3.0467 13.86 3.21586 13.8423C2.40332 13.7924 3.18102 13.7988 3.35536 13.4518C3.394 13.3738 2.87294 13.5485 3.46237 13.2884C3.00946 13.2815 3.14573 13.2015 2.75415 13.3302C2.74981 13.1978 3.64307 12.9674 4.0102 12.8663C2.70876 12.8342 3.47812 13.252 2.37603 13.0937C2.19288 13.2747 2.69973 13.1969 2.66121 13.2275C2.52336 13.3376 2.14874 13.2164 1.72785 13.5965C1.66066 13.6587 1.98177 13.8025 1.52877 13.8351C1.4784 13.8385 1.18053 13.7178 1.18385 13.7068C1.21055 13.5887 1.49679 13.6061 1.50455 13.5571C1.51101 13.5108 1.19846 13.5666 1.19672 13.5541C1.17374 13.4113 1.45397 13.4754 1.41048 13.434C1.31552 13.3439 0.158884 13.1369 1.64409 13.0937C0.430296 13.3674 1.49232 13.2674 1.98012 13.1604C2.10314 13.1335 2.1308 13.0444 2.30287 12.9988C2.51293 12.9409 2.77063 12.9592 2.8823 12.9333C3.00326 12.9049 2.29028 12.7645 3.30057 12.7345C2.77131 12.5787 1.88686 12.8755 1.34949 12.7813C0.294529 12.5881 2.0368 12.3683 2.23367 12.3226C2.28163 12.3107 2.10722 12.2095 2.13888 12.1995C2.1945 12.1835 3.15729 12.1507 3.25159 12.0454C3.33928 11.9409 2.89255 12.0822 2.85442 11.9849C2.82321 11.9198 4.00675 11.6929 3.35548 11.7052C2.89887 11.7145 2.15242 12.0546 1.96388 11.7785C2.6186 11.695 3.2398 11.6148 3.90967 11.5303C3.53473 11.4524 3.16606 11.3741 2.80379 11.2952C3.51343 11.1959 4.21726 11.2585 4.87011 11.0403C3.17767 10.8348 5.38144 10.7091 5.40044 10.664C5.40493 10.6376 4.73003 10.408 4.6239 10.3645C5.17015 10.2038 6.96893 9.98837 5.88489 9.72715C6.08125 9.79045 6.52978 9.5507 6.52278 9.53626C6.44588 9.38487 5.44975 9.57662 5.60193 9.42008C5.7756 9.23868 6.06127 9.43812 6.35545 9.39385C7.851 9.1666 7.33027 8.38696 8.85289 8.38213C8.82016 8.35563 8.78745 8.32913 8.75478 8.30262C10.3767 8.20515 12.0386 8.10482 13.6234 8.01185C14.2329 7.70579 15.9231 7.40345 16.7396 7.35975C16.9052 7.35064 17.741 7.40973 17.8067 7.42719C17.9261 7.46121 17.2919 7.53376 17.5863 7.59135C17.6493 7.60292 19.0539 7.53556 18.9344 7.40493C18.7816 7.40193 18.3046 7.51462 18.2171 7.48903C17.6515 7.30101 21.9186 7.11775 22.1315 7.00388C22.0343 6.96651 21.9372 6.92914 21.8403 6.89175C22.1071 6.89106 22.3751 6.89027 22.6443 6.8894ZM11.2448 19.2247C11.0972 19.3794 10.6904 19.3091 10.4616 19.3692C10.1248 19.4548 9.60333 20.0465 9.80065 19.4824C10.2972 19.3951 10.7713 19.3098 11.2448 19.2247ZM18.3594 18.8083C18.0254 18.7616 18.2522 18.4364 18.5326 18.5387C18.5639 18.5504 18.8124 18.871 18.3594 18.8083ZM14.9308 18.9649C14.944 18.9597 15.2274 18.9428 15.2379 18.9467C15.5022 19.0459 14.6479 19.0962 14.9308 18.9649ZM31.4147 17.373C31.0576 17.4169 31.3405 17.67 31.5539 17.5375C31.5673 17.5291 31.4382 17.3703 31.4147 17.373ZM31.1594 17.3876C30.86 17.1649 30.3463 17.7127 30.7849 17.6242C30.8273 17.6155 31.1731 17.3985 31.1594 17.3876ZM17.19 18.7896C17.2178 18.692 17.5552 18.7083 17.7005 18.7183C17.704 18.805 17.3281 18.7669 17.19 18.7896ZM25.7113 18.0194C25.7176 17.944 24.5417 18.0502 24.4726 18.1549C24.6516 18.0975 25.7022 18.0875 25.7113 18.0194ZM28.6922 17.6563C28.6611 17.646 28.2574 17.7006 28.2751 17.7651C28.4798 17.834 28.8314 17.7028 28.6922 17.6563ZM34.6455 17.1485C34.6661 17.1301 34.3287 16.7387 35.0663 16.9522C35.1747 16.9834 34.8093 17.1245 34.8479 17.1363C34.9284 17.1588 34.9913 17.1671 35.0411 17.1653C34.7111 17.2284 34.3685 17.2742 34.333 17.2517C34.1664 17.1456 34.6363 17.1562 34.6455 17.1485ZM37.7492 16.57C37.8113 16.4961 38.2503 16.4953 38.3522 16.5148C38.3698 16.5187 38.3106 16.7039 38.5062 16.6737C38.6634 16.6492 38.4115 16.4861 38.7221 16.4892C39.0363 16.4921 38.631 16.6581 38.6591 16.6651C38.6964 16.6742 39.172 16.5509 39.1662 16.6587C39.1615 16.7386 38.64 16.7292 38.5142 16.7569C38.3529 16.7923 38.5618 16.907 38.2869 16.9019C38.1143 16.8989 38.1894 16.6596 38.1523 16.651C38.1209 16.6442 37.5357 16.8281 37.7502 16.5706C37.7498 16.5704 37.7495 16.5702 37.7492 16.57ZM35.1303 17.1474C35.1059 17.1574 35.0768 17.164 35.0411 17.1653C35.071 17.1596 35.1008 17.1534 35.1303 17.1474ZM12.1737 19.0401C12.3502 19.0963 11.853 19.2325 11.6559 19.1559C11.6454 19.0809 12.145 19.0315 12.1737 19.0401ZM35.4234 16.9326C35.9249 16.9481 35.5658 17.059 35.1303 17.1474C35.2662 17.0919 35.2553 16.9275 35.4234 16.9326ZM21.3673 18.2445C21.3897 18.2599 21.4054 18.2856 21.4109 18.3296C21.3516 18.2861 21.3444 18.2606 21.3673 18.2445ZM22.5415 18.2215C22.9328 18.0518 22.1146 18.1286 22.129 18.2244C22.1344 18.2605 22.5256 18.2283 22.5415 18.2215ZM31.8765 17.3465C31.8392 17.3364 32.3683 16.8816 31.5756 17.257C32.0164 17.2673 31.5594 17.3512 31.5694 17.3861C31.5955 17.4869 32.322 17.3254 32.4899 17.3555C32.6019 17.1616 31.9998 17.3796 31.8775 17.3464C31.8772 17.3464 31.8768 17.3465 31.8765 17.3465ZM43.3862 16.1901C43.2957 16.3057 42.9774 16.2979 42.7646 16.3096C42.8547 16.194 43.1725 16.2018 43.3862 16.1901ZM99.0309 11.694C97.5814 11.9053 97.3586 11.483 98.7057 11.553C98.7321 11.5546 99.116 11.6429 99.0309 11.694ZM86.5165 12.5556C86.3641 12.3761 86.8162 12.3095 87.1209 12.3646C87.1899 12.377 87.4548 12.5502 87.1726 12.6104C87.1635 12.3789 86.7155 12.3255 86.5165 12.5556ZM35.6936 16.7868C35.8272 16.6475 36.2814 16.6996 36.5192 16.6985C36.3839 16.8153 35.9042 16.8087 35.6936 16.7868ZM94.2251 11.8362C94.0704 11.8337 93.9795 12.0074 94.0071 12.0192C94.1308 12.0732 94.4074 11.9169 94.2251 11.8362ZM34.2615 16.8895C34.2346 16.8155 34.8133 16.6923 34.8705 16.8763C34.7437 16.8735 34.2799 16.9359 34.2615 16.8895ZM42.98 16.1671C42.8854 16.1363 43.3526 16.0272 43.4995 16.0533C43.4947 16.135 43.0419 16.1872 42.98 16.1671ZM91.7562 12.0852C91.6175 12.0815 91.2737 12.104 91.2409 12.1739C91.2002 12.2613 91.7017 12.1934 91.7562 12.0852ZM117.336 10.004C117.355 10.0328 116.84 10.2884 116.6 10.2508C116.144 10.1785 117.316 9.984 117.336 10.004ZM95.6718 11.638C96.1173 11.762 95.6243 11.6467 95.6562 11.8111C95.9483 11.7945 96.6741 11.7466 96.1629 11.622C96.0634 11.598 95.8085 11.6382 95.6718 11.638ZM95.2676 11.6135C95.2253 11.6708 94.926 11.8645 95.1952 11.8314C95.3196 11.8159 95.5063 11.612 95.2676 11.6135ZM114.04 10.3196C113.638 10.2014 115.435 10.1485 115.487 10.1707C115.515 10.1823 115.533 10.1938 115.544 10.2039C115.607 10.1525 115.943 10.1195 115.99 10.2344C115.889 10.2321 115.614 10.2626 115.581 10.2519C115.566 10.2474 115.556 10.2429 115.548 10.2381C115.438 10.349 114.116 10.3419 114.04 10.3196ZM111.081 10.3866C111.51 10.1367 111.616 10.4994 111.579 10.5141C111.105 10.7009 111.401 10.4057 111.385 10.3941C111.35 10.3754 111.015 10.5271 111.082 10.3865C111.082 10.3865 111.081 10.3866 111.081 10.3866ZM113.433 10.3034C113.451 10.2972 113.824 10.2812 113.84 10.2859C114.154 10.3873 113.099 10.4332 113.433 10.3034ZM40.0809 16.1118C40.3532 16.1256 40.1006 16.2835 39.9179 16.2499C39.9028 16.2464 39.841 16.0997 40.0809 16.1118ZM95.057 11.6665C94.9932 11.6457 93.3998 11.6724 93.511 11.8697C93.644 11.835 95.4543 11.8004 95.057 11.6665ZM83.2029 12.5479C83.483 12.5272 83.1931 12.7445 83.038 12.6844C82.9805 12.6621 83.1323 12.5532 83.2029 12.5479ZM33.4617 16.7817C33.1812 16.9126 33.2124 16.5517 33.4718 16.6522C33.482 16.6561 33.4726 16.7766 33.4617 16.7817ZM85.4447 12.4817C84.4898 12.675 84.6695 12.0449 85.9397 12.1523C85.9026 12.1827 85.8655 12.213 85.8284 12.2434C87.283 12.2208 85.9308 12.2787 85.5791 12.341C85.4455 12.3647 85.5665 12.4579 85.4457 12.4823C85.4453 12.4821 85.445 12.4819 85.4447 12.4817ZM81.7302 12.6534C80.7665 12.2931 82.5626 12.4345 83.0676 12.3375C82.5882 12.5561 81.9437 12.5801 82.8321 12.6942C81.5574 12.8314 82.0755 12.6161 82.0233 12.6057C81.9617 12.5944 81.7713 12.6688 81.7302 12.6534ZM84.1805 12.4555C84.2331 12.4386 84.6444 12.4949 84.7889 12.469C84.597 12.6335 83.8311 12.57 84.1805 12.4555ZM107.993 10.7186C108.018 10.5998 108.094 10.5079 108.417 10.5275C108.322 10.5933 108.123 10.6588 107.993 10.7186ZM10.8884 18.6401C10.6725 18.6509 10.2396 18.6452 10.3825 18.7556C10.4001 18.7645 10.8927 18.7088 10.8884 18.6401ZM90.4436 11.9315C90.3958 11.9208 89.1858 12.0061 89.6135 12.1016C89.7426 12.1304 90.8414 12.0277 90.4436 11.9315ZM96.7059 11.4588C96.6042 11.4655 96.1956 11.5191 96.1889 11.5473C96.1686 11.6445 96.6682 11.5533 96.7059 11.4588ZM9.76679 18.6199C9.73502 18.6106 9.06055 18.6921 9.14049 18.7418C9.28917 18.836 9.87073 18.6525 9.76679 18.6199ZM41.0378 15.7563C41.0929 15.7473 41.1771 15.8673 41.1965 15.8671C41.2411 15.8651 42.2574 15.73 41.8812 15.9251C41.8206 15.9576 40.3403 16.0206 40.1411 16.0214C40.0514 15.8545 40.7018 15.9653 40.856 15.9342C40.8825 15.9286 40.8901 15.7819 41.0374 15.7571C41.0375 15.7568 41.0376 15.7566 41.0378 15.7563ZM109.643 10.4717C109.679 10.3581 110.887 10.1946 110.882 10.3294C110.47 10.3767 110.055 10.4243 109.643 10.4717ZM109.03 10.4991C108.767 10.4404 109.367 10.3695 109.547 10.3907C109.555 10.4647 109.069 10.5077 109.03 10.4991ZM94.3839 11.2244C94.2647 11.2608 94.6504 11.3926 94.5694 11.4304C94.5173 11.454 94.2415 11.4148 94.1588 11.4718C94.1355 11.4897 94.424 11.6194 94.5035 11.6067C94.6165 11.5891 94.497 11.4787 94.621 11.4682C95.0326 11.4337 95.4041 11.4903 95.7897 11.4584C95.8245 11.4553 95.5479 11.3922 95.8451 11.3704C95.891 11.3669 96.1766 11.4706 96.5305 11.4246C97.2871 10.9762 97.8944 11.3122 98.8806 11.0958C98.8403 11.0622 98.0869 11.0217 98.0426 11.0214C97.203 11.0219 95.7096 11.1304 94.8372 11.1973C94.6132 11.2143 94.7283 11.2879 94.6321 11.2984C94.556 11.3065 94.6349 11.1476 94.3839 11.2244ZM10.9956 18.546C10.8771 18.4038 10.5335 18.531 10.2943 18.5443C10.3976 18.673 10.7648 18.5326 10.9956 18.546ZM103.599 10.7904C103.482 10.8051 103.114 10.7872 103.087 10.8352C103.053 10.8978 103.582 10.8954 103.599 10.7904ZM46.8241 15.3102C46.8351 15.3051 47.1189 15.2894 47.13 15.2932C47.3932 15.3936 46.5421 15.4402 46.8241 15.3102ZM53.603 14.7711C53.8148 14.7346 54.0265 14.6692 54.1086 14.7862C53.9707 14.7788 53.5851 14.8589 53.603 14.7711ZM62.9415 13.9933C62.8839 13.8358 63.5378 13.8871 63.6611 13.8915C63.6217 13.9669 62.9833 14.1068 62.9415 13.9933ZM107.909 10.2159C108.304 10.1959 108.202 9.95788 108.461 10.0496C108.503 10.0653 108.674 10.5639 108.226 10.4059C108.145 10.3775 108.441 10.2337 107.909 10.2159ZM86.1443 12.1413C86.2363 12.0267 86.5529 12.0335 86.7659 12.0253C86.7245 12.1083 86.2947 12.1217 86.1443 12.1413ZM8.54061 18.6063C8.34166 18.4724 7.51932 18.6583 7.73437 18.7392C7.76344 18.7497 8.41994 18.6113 8.54061 18.6063ZM36.6628 16.2143C37.0085 16.0654 36.2683 16.0917 36.0471 16.2272C36.1511 16.2107 36.6393 16.2242 36.6628 16.2143ZM60.6916 14.0907C60.7082 14.0844 61.0842 14.0649 61.1015 14.0693C61.4191 14.1677 60.3553 14.2236 60.6916 14.0907ZM51.3552 14.762C51.4813 14.6532 52.3757 14.6576 52.5838 14.7386C52.4029 14.8973 51.1977 14.8978 51.3552 14.762ZM106.287 10.4077C106.569 10.3814 106.839 10.3913 107.101 10.414C107.053 10.5002 106.321 10.4668 106.287 10.4077ZM62.0629 13.9672C62.0829 13.9662 62.1031 13.9739 62.1222 13.9734C62.102 13.9715 62.0823 13.9692 62.0629 13.9672ZM99.9738 10.8297C99.7354 10.8154 99.7959 10.9621 99.8108 10.9656C99.9921 11.0008 100.244 10.8459 99.9738 10.8297ZM10.7112 18.3463C10.6204 18.2175 10.2387 18.3575 9.99755 18.3464C10.0762 18.4474 10.5378 18.376 10.7112 18.3463ZM80.7133 12.4546C80.4049 12.331 81.5983 12.0636 81.8605 12.1382C81.8865 12.2276 80.7582 12.4712 80.7133 12.4546ZM35.545 16.1048C35.5119 16.0004 35.016 16.1722 35.128 16.2132C35.1988 16.2394 35.5648 16.1696 35.545 16.1048ZM82.473 12.1518C82.584 12.1103 82.857 12.1943 82.7689 12.2657C82.6558 12.3572 82.4445 12.1635 82.473 12.1518ZM92.6439 11.2643C92.5929 11.2519 91.934 11.4132 92.2182 11.5003C92.4154 11.5608 92.4339 11.4046 92.4788 11.4006C92.5292 11.3971 93.6152 11.5019 92.6439 11.2643ZM73.9454 12.9052C74.1942 12.8439 74.5041 12.8667 74.7658 12.8426C74.665 12.9169 74.0598 12.9839 73.9454 12.9052ZM37.5043 15.9087C37.4498 15.87 35.7635 15.9879 36.7302 16.0387C36.7911 16.041 37.6999 16.0232 37.5043 15.9087ZM107.909 10.2159C107.859 10.2185 107.801 10.2177 107.733 10.2122C107.8 10.2114 107.858 10.2143 107.909 10.2159ZM103.42 10.5388C103.505 10.4544 103.045 10.4685 102.913 10.52C102.879 10.6179 103.408 10.5506 103.42 10.5388ZM74.777 12.7329C74.9248 12.6764 75.2035 12.7015 75.3906 12.6812C75.3646 12.7558 74.8483 12.8008 74.777 12.7329ZM64.1114 13.5201C64.4165 13.5381 64.7867 13.4879 64.7852 13.3994C64.7926 13.4126 64.8085 13.426 64.834 13.4387C64.8597 13.4513 65.1802 13.3837 65.3235 13.4023C66.1787 13.5118 62.084 13.7739 64.4326 13.3306C64.3255 13.3938 64.2184 13.4569 64.1114 13.5201ZM50.1423 14.6549C49.9628 14.562 49.4978 14.7363 49.625 14.7681C49.7132 14.7898 50.3218 14.7485 50.1423 14.6549ZM56.7205 14.0418C56.6674 14.027 56.2039 14.1411 56.1966 14.1986C56.4713 14.2356 56.9621 14.1113 56.7205 14.0418ZM48.8238 14.6392C48.7142 14.6321 48.5907 14.8165 48.604 14.823C48.7192 14.8769 49.0138 14.7201 48.8238 14.6392ZM107.055 9.81146C106.891 9.77394 106.391 9.93755 106.288 10.0602C106.266 10.0396 106.208 10.015 106.103 9.98818C106.104 9.98816 106.104 9.98814 106.104 9.98811C105.957 9.95249 101.848 10.2134 104.621 10.2244C104.707 10.2249 104.582 10.1313 104.934 10.1228C104.957 10.1224 104.975 10.2052 105.047 10.2039C105.211 10.2003 106.098 10.1863 106.27 10.1056C106.273 10.121 106.285 10.1349 106.311 10.1466C106.537 10.2509 107.182 9.84031 107.055 9.81146ZM57.647 13.9495C57.5508 13.9263 57.2573 13.9803 57.2327 14.0566C57.3825 14.0806 57.8702 14.0038 57.647 13.9495ZM37.4273 15.6102C37.2346 15.5655 36.7558 15.7207 36.9085 15.7684C37.0082 15.7973 37.6508 15.6613 37.4273 15.6102ZM54.6621 14.2374C55.7678 14.2331 54.9236 14.2085 55.0828 14.0862C54.9424 14.1366 54.8022 14.187 54.6621 14.2374ZM112.166 9.71113C111.989 9.69919 112.179 9.47013 112.38 9.57186C112.444 9.60421 112.265 9.71741 112.166 9.71113ZM120.08 9.06556C119.916 8.88675 120.655 8.94546 120.38 9.09606C120.367 9.10139 120.091 9.072 120.08 9.06556ZM114.537 9.39139C114.427 9.52926 114.35 9.55032 114.012 9.54319C114.507 9.47015 114.037 9.38999 114.537 9.39139ZM64.7808 13.3858C64.7832 13.3908 64.7851 13.3946 64.7852 13.3994C64.7826 13.3948 64.7813 13.3904 64.7808 13.3858ZM47.7863 14.7602C47.6388 14.6626 47.2529 14.7032 47.3773 14.8034C47.3892 14.8127 47.7364 14.8457 47.7863 14.7602ZM106.288 10.0602C106.308 10.0784 106.3 10.0917 106.27 10.1056C106.268 10.0911 106.275 10.0767 106.288 10.0602ZM49.851 14.497C49.844 14.5797 50.4315 14.5624 50.4544 14.5508C50.7788 14.3813 50.0916 14.4719 49.851 14.497ZM33.538 15.8276C33.5088 15.8386 33.7198 16.0325 33.8313 15.9399C33.9175 15.8681 33.6472 15.7856 33.538 15.8276ZM115.675 9.255C115.862 9.2415 116.123 9.22225 116.179 9.31875C116.053 9.3125 115.677 9.32868 115.675 9.255ZM119.783 8.9489C119.571 9.08239 119.068 9.11847 118.744 9.12245C118.727 8.96804 119.579 9.00017 119.783 8.9489ZM107.564 9.83123C107.548 9.82607 107.078 9.81495 107.15 9.91377C107.254 10.0587 107.7 9.87768 107.564 9.83123ZM34.4449 15.8623C34.6461 15.7732 34.15 15.595 33.9468 15.7829C33.8422 15.8792 34.4107 15.8772 34.4449 15.8623ZM46.5684 14.7187C46.2988 14.8018 46.9886 14.8511 47.075 14.7348C46.9474 14.7368 46.6641 14.6893 46.5684 14.7187ZM55.9208 13.8254C55.0261 13.5854 55.5467 14.1156 55.6965 14.0527C55.7176 14.0438 55.9426 13.8309 55.9208 13.8254ZM6.33238 18.1748C6.21338 18.2292 6.68539 18.3453 6.73667 18.2364C6.76751 18.1685 6.40778 18.1402 6.33238 18.1748ZM68.993 12.9531C68.9565 12.957 68.9201 12.961 68.8842 12.9649C68.9108 12.9576 68.9462 12.953 68.993 12.9531ZM44.0392 14.5111C44.6909 14.8999 44.5983 14.5656 44.6518 14.5629C44.7693 14.5578 45.0434 14.6546 45.2558 14.617C45.0152 14.6873 44.7732 14.7577 44.5267 14.8286C44.7354 14.8429 46.4254 14.8637 46.4588 14.7889C46.5009 14.6829 45.9713 14.7597 45.9552 14.752C45.9318 14.7411 45.8249 14.4651 45.7748 14.4585C45.6937 14.448 44.2782 14.5617 44.0392 14.5111ZM54.1128 14.0252C54.2545 14.0472 54.3033 14.1561 54.3656 14.1239C54.3869 14.1129 54.3815 14.0056 54.4543 13.9717C54.3404 13.9895 54.2266 14.0074 54.1128 14.0252ZM42.9763 15.0002C42.7922 14.8841 43.572 14.8681 43.5986 14.8806C43.7389 14.9579 43.1262 15.095 42.9763 15.0002ZM49.5516 14.4266C49.5227 14.4214 48.929 14.4301 48.94 14.5022C49.1003 14.5444 49.8919 14.4942 49.5516 14.4266ZM54.5466 13.9567C54.756 13.9518 55.1599 14.0266 55.1012 13.8693C55.1009 13.8693 55.1006 13.8694 55.1003 13.8694C54.9155 13.8985 54.731 13.9276 54.5466 13.9567ZM35.1273 15.4613C34.7186 15.2379 34.9292 15.5463 35.2793 15.5997C35.3734 15.4757 35.1943 15.4976 35.1273 15.4613ZM33.8776 15.3757C33.7702 15.3384 32.6637 15.4844 32.8432 15.6056C32.9099 15.6486 33.5397 15.4717 33.5669 15.4788C33.6122 15.489 33.4236 15.6564 33.7579 15.5977C33.7338 15.5486 33.9154 15.388 33.8776 15.3757ZM34.7932 15.3245C34.3928 15.1623 34.338 15.5294 34.6261 15.5057C34.7388 15.4966 34.8504 15.3479 34.7932 15.3245ZM36.3726 15.2202C36.2299 15.198 35.8542 15.18 35.6096 15.3215C35.9518 15.3025 36.2952 15.2834 36.6398 15.2643C36.6737 15.1931 36.4973 15.2398 36.3716 15.2203C36.3719 15.2203 36.3723 15.2202 36.3726 15.2202ZM122.026 7.86021C121.715 7.77986 122.413 7.69058 122.444 7.71359C122.538 7.7906 122.165 7.89608 122.026 7.86021ZM3.65145 15.1224C3.56289 15.0894 3.49505 14.9607 3.31611 15.0475C3.51119 15.1294 3.70802 15.2112 3.90659 15.2929C4.03373 15.0534 3.74802 15.1589 3.65145 15.1224ZM2.86674 14.3599C2.89245 14.3521 2.7182 14.0171 3.07616 14.219C3.3162 14.3554 2.10059 14.6191 1.83482 14.4877C2.08948 14.3924 2.65404 14.4241 2.86674 14.3599ZM0.521086 13.0542C0.503381 13.0279 0.970409 12.9445 1.02864 12.9589C1.32735 13.0358 0.608364 13.1961 0.521086 13.0542ZM2.06337 12.9815C1.82303 12.9351 2.34258 12.8442 2.4783 12.8712C2.50052 12.9345 2.10568 12.9876 2.06337 12.9815ZM118.564 3.03801C118.303 2.81898 118.12 3.3445 118.49 3.21453C118.507 3.20839 118.576 3.04885 118.564 3.03801ZM0.949933 12.6616C1.17932 12.7089 0.688435 12.7973 0.541587 12.7714C0.521531 12.708 0.914195 12.6549 0.949933 12.6616ZM118.351 2.48651C118.014 2.33973 118.17 2.90319 118.212 2.92328C118.386 3.00211 118.943 2.7362 119.056 2.67198C118.205 2.81981 118.51 2.55573 118.351 2.48651ZM116.885 2.93815C116.591 3.02093 117.364 3.08191 117.498 2.91197C117.35 2.93038 116.969 2.91431 116.885 2.93815ZM115.052 2.88779C114.889 2.87915 114.404 2.86545 114.329 2.96136C114.505 2.93207 114.99 2.98535 115.052 2.88779ZM114.666 2.6451C114.404 2.54144 114.369 2.90203 114.653 2.77455C114.664 2.76961 114.676 2.65121 114.666 2.6451ZM113.235 2.62108C113.06 2.4916 112.897 2.85038 113.165 2.83997C113.244 2.83625 113.254 2.63603 113.235 2.62108ZM117.899 1.90094C117.657 1.85739 117.372 2.1264 117.878 2.11691C117.703 2.16759 117.53 2.21809 117.355 2.26872C118.024 2.35933 117.954 2.02007 118.146 2.02041C118.414 2.02116 118.414 2.30537 118.367 2.39802C118.573 2.20892 119.503 2.13893 120.035 2.06748C119.56 2.02863 118.785 1.95792 118.315 1.94571C118.181 1.94204 118.057 2.02894 117.943 2.02852C117.759 2.02744 117.913 1.90406 117.9 1.90087C117.9 1.90089 117.9 1.90091 117.899 1.90094ZM111.374 2.75351C110.876 2.62918 111.209 2.95271 111.48 2.87057C111.491 2.86495 111.387 2.75654 111.374 2.75351ZM0.223605 11.6677C0.873643 11.7545 0.406119 11.99 1.75936 11.5741C1.19404 11.8329 1.74001 11.7252 1.63365 11.8186C1.54762 11.8927 1.20396 11.8689 1.41295 11.9835C1.13337 11.8634 0.0508918 12.0019 0.0073006 11.9823C0.00774544 11.9822 0.00819029 11.9822 0.00863516 11.9822C-0.0208697 11.9709 0.0194895 11.6399 0.223605 11.6677ZM114.983 1.98216C114.79 1.57377 114.775 2.24555 114.429 1.92069C114.041 2.45776 115.605 1.83449 115.829 2.24778C114.09 2.32508 117.006 2.58735 115.749 2.03628C116.762 2.1956 116.069 1.9332 116.217 1.84047C116.376 1.74162 116.945 1.79497 116.905 1.6405C116.905 1.64052 116.905 1.64054 116.904 1.64057C116.561 1.67658 116.217 1.71266 115.873 1.74883C116.236 2.06187 115.523 2.01211 115.263 1.75452C115.17 1.83039 115.076 1.90627 114.983 1.98216ZM116.958 2.15659C116.924 2.15129 116.178 2.25324 116.232 2.31752C116.335 2.35338 117.394 2.2242 116.958 2.15659ZM120.261 1.84344C119.991 1.86197 119.569 1.82616 119.431 1.96413C119.702 1.94549 120.123 1.98139 120.261 1.84344ZM106.375 2.84208C106.039 2.97243 107.1 2.92375 106.784 2.82304C106.769 2.81834 106.392 2.83592 106.375 2.84208ZM114.204 2.10323C113.844 2.00058 114.039 2.39722 114.291 2.27159C114.306 2.2642 114.22 2.1079 114.204 2.10323ZM0.733051 11.5714C0.742899 11.4697 1.69723 11.4541 1.87476 11.4372C1.77911 11.5395 0.71191 11.6889 0.733051 11.5714ZM120.708 1.43462C120.147 1.11278 119.448 1.58141 119.367 1.57811C119.287 1.57458 119.4 1.40812 119.382 1.4052C119.34 1.39931 118.493 1.47383 118.452 1.48781C118.423 1.49848 118.593 1.70863 118.423 1.79102C118.757 1.64036 120.31 1.60746 120.387 1.57733C120.448 1.55329 119.964 1.35451 120.707 1.43468C120.707 1.43466 120.707 1.43464 120.708 1.43462ZM119.164 1.54432C119.382 1.62178 118.789 1.67628 118.642 1.65249C118.317 1.59902 119.136 1.53526 119.164 1.54432ZM117.727 1.56243C117.658 1.54649 117.049 1.57175 117.005 1.67879C117.303 1.79176 117.883 1.59982 117.727 1.56243ZM110.941 2.07475C110.783 2.09974 110.34 2.05287 110.322 2.14495C110.48 2.11995 110.922 2.16681 110.941 2.07475ZM3.88168 10.4944C3.60582 10.4432 4.22694 10.3563 4.41451 10.3759C4.43107 10.435 3.90375 10.4989 3.88168 10.4944ZM114.081 1.2449C113.98 1.2246 112.077 1.43377 111.811 1.49606C112.08 1.54467 113.971 1.4105 114.059 1.37063C114.084 1.3588 114.093 1.24834 114.081 1.2449ZM118.22 0.900979C118.387 0.755318 118.513 0.906354 118.536 0.906746C118.755 0.91128 119.205 0.848707 119.115 0.983837C118.727 0.959897 117.888 1.1903 118.22 0.900979ZM110.76 1.48371C110.112 1.58138 111.373 1.62847 111.199 1.50181C111.187 1.49419 110.827 1.47353 110.76 1.48371ZM114.293 1.19041C114.43 1.07229 116.354 1.02456 116.659 1.0026C116.399 1.22064 116.167 1.08639 115.798 1.12351C115.698 1.13376 115.731 1.21419 115.72 1.21511C115.547 1.23156 115.67 1.12696 115.563 1.13331C115.496 1.13748 114.102 1.35647 114.293 1.19041ZM118.314 0.801634C118.417 0.71758 119.614 0.598461 119.663 0.615316C120.035 0.739809 118.41 0.821223 118.314 0.801634ZM114.104 1.02732C114.294 0.781948 115.259 0.866151 114.614 1.02874C114.553 1.04375 114.281 0.963378 114.104 1.02732ZM110.813 1.25942C110.781 1.25501 110.098 1.2595 110.091 1.33365C110.192 1.35474 111.183 1.30677 110.813 1.25942ZM111.146 0.985693C111.13 0.988664 111.3 1.11788 110.98 1.12361C110.954 1.1239 110.892 0.968888 110.497 1.05671C110.416 1.07471 110.298 1.18903 110.308 1.19488C110.744 1.41278 111.961 0.843035 111.146 0.985693ZM118.327 0.671465C118.257 0.609179 118.399 0.39906 118.547 0.489548C118.611 0.528655 118.507 0.6561 118.327 0.671465ZM108.655 1.35556C109.039 1.20563 107.804 1.2751 107.743 1.31074C107.788 1.38283 108.617 1.37024 108.655 1.35556ZM4.42601 9.50859C4.42571 9.50862 4.42541 9.50865 4.42511 9.50868C4.74883 9.50712 4.55886 9.62514 4.57412 9.62694C5.27583 9.71228 5.07536 9.50161 5.18095 9.46515C5.4104 9.38622 5.39608 9.66558 5.78609 9.51537C5.14082 9.74341 5.73499 9.61883 5.76294 9.71526C5.87096 10.1093 4.8694 9.60624 4.56136 9.71853C4.51763 9.73418 4.85879 9.83242 4.7476 9.87905C4.41115 10.028 3.11325 9.52137 4.42601 9.50859ZM118.654 0.464159C118.801 0.335091 119.978 0.365093 119.675 0.484495C119.627 0.503557 118.44 0.652235 118.654 0.464159ZM64.1606 4.52808C64.4332 4.40314 63.7722 4.33682 63.6582 4.42601C63.6016 4.47043 64.0408 4.58292 64.1606 4.52808ZM59.5717 4.4672C59.2396 4.51547 58.9234 4.96935 59.3328 4.86913C59.3762 4.85827 59.6148 4.52297 59.5717 4.4672ZM81.4515 2.91045C81.0915 2.78631 81.1347 3.06681 81.3898 3.04248C81.4799 3.03394 81.4629 2.91438 81.4515 2.91045ZM68.1852 4.01664C68.1494 4.00963 67.7485 4.06047 67.7685 4.12411C67.9203 4.15088 68.4161 4.06586 68.1852 4.01664ZM81.5588 2.86149C81.3566 2.92877 81.7279 3.10456 81.9643 2.88505C81.8375 2.9116 81.5797 2.8546 81.5588 2.86149ZM113.336 0.456611C113.172 0.585176 112.683 0.586051 112.404 0.626671C112.363 0.478712 113.138 0.498505 113.336 0.456611ZM61.0025 4.52108C60.6976 4.6527 61.3766 4.6839 61.3035 4.54918C61.2943 4.54229 61.0144 4.51555 61.0025 4.52108ZM92.6669 1.97113C92.4446 2.07852 93.1819 2.1423 92.9693 2.00049C92.9589 1.99484 92.6791 1.96517 92.6669 1.97113ZM95.8475 1.77657C95.6715 1.75977 94.9314 1.8264 95.2265 1.89146C95.2723 1.90141 95.8407 1.8596 95.8475 1.77657ZM5.19062 9.35544C5.08352 9.20974 5.62688 9.19803 5.70852 9.21787C5.73974 9.22636 5.32866 9.54512 5.19062 9.35544ZM79.1917 3.06659C79.0136 3.10025 78.5447 3.1009 78.4692 3.18836C78.6875 3.15401 79.2637 3.22299 79.1917 3.06659ZM62.4348 4.40237C62.1469 4.25741 61.6807 4.31245 61.8143 4.52179C62.3298 4.46459 61.734 4.33034 62.4348 4.40237ZM82.7041 2.58889C82.5591 2.58756 82.465 2.8066 82.4821 2.81521C82.6462 2.89699 82.8538 2.65931 82.7041 2.58889ZM71.8907 3.63094C71.8751 3.54178 71.4159 3.62004 71.4824 3.67285C71.5042 3.69062 71.9033 3.70309 71.8907 3.63094ZM107.275 0.855865C107.057 0.789726 107.698 0.660979 107.897 0.742451C108 0.873473 107.303 0.863257 107.275 0.855865ZM86.7087 2.32481C86.7197 2.18977 86.0024 2.32221 86.2961 2.41025C86.3696 2.43228 86.7047 2.36999 86.7087 2.32481ZM93.618 1.62314C93.1455 1.81978 95.1902 1.77472 94.6398 1.61806C94.6006 1.60687 93.6592 1.60641 93.618 1.62314ZM96.9519 1.46506C96.8668 1.454 96.874 1.00265 97.2339 1.14875C97.2811 1.16766 97.0774 1.30251 97.1167 1.32674C97.1398 1.34048 97.898 1.34542 97.9318 1.33231C97.9682 1.31756 97.9133 1.17731 97.9499 1.15829C97.9912 1.137 98.4644 1.22755 98.7071 1.21031C99.1644 1.17759 99.2045 1.05428 99.242 1.05101C99.3511 1.04185 99.5411 1.11267 99.7623 1.09563C100.878 1.0092 102.583 0.777415 103.485 0.964005C102.691 0.92188 101.948 1.087 101.165 1.18013C101.376 0.912998 100.024 1.46065 100.813 1.11079C100.442 1.20168 97.2326 1.49822 96.9528 1.46499C96.9525 1.46502 96.9522 1.46504 96.9519 1.46506ZM58.2463 4.45042C58.4376 4.28059 57.3932 4.40173 57.3197 4.58599C57.4594 4.59912 58.2222 4.46986 58.2463 4.45042ZM63.0569 3.67803C63.1523 3.64361 63.22 3.33706 63.7446 3.44663C63.7451 3.44659 63.7455 3.44655 63.746 3.44651C63.8994 3.47849 63.7347 3.56535 63.7643 3.58905C63.7751 3.59883 64.2546 3.70919 63.8685 3.76496C63.28 3.85022 63.7945 3.54713 63.4789 3.56986C63.4402 3.57279 62.8575 3.78359 62.8951 3.81626C62.899 3.8201 63.0755 3.77114 63.1063 3.78347C63.2228 3.82977 63.176 3.9276 63.1921 3.93075C63.2444 3.9379 64.1752 3.70136 64.3244 3.82897C64.372 3.87012 62.8316 4.10064 62.7702 4.08228C62.7309 4.07074 62.7257 3.81029 62.6842 3.78804C62.6627 3.77702 62.0496 3.92523 61.9672 3.90803C61.9433 3.90307 61.9248 3.89711 61.9112 3.89207C62.0116 3.96451 61.4496 4.00499 61.4594 3.91311C61.4662 3.87675 61.8543 3.8655 61.8687 3.87058C61.875 3.87271 61.8806 3.8759 61.8857 3.878C61.7971 3.7869 63.1086 3.68345 62.8137 3.56133C63.1876 3.45039 62.7772 3.77907 63.0569 3.67803ZM64.8775 3.36766C64.8403 3.39815 64.8031 3.42864 64.7658 3.45912C65.4269 3.33778 66.2012 3.40648 66.9687 3.34281C67.1634 3.32686 66.9258 3.17847 67.1847 3.20317C67.3922 3.22298 67.6312 3.35911 67.5228 3.40266C67.4963 3.41347 67.0718 3.34677 66.8644 3.37411C66.2524 3.45491 66.4195 3.58516 66.3839 3.59196C66.3446 3.59926 65.95 3.53034 65.7397 3.55206C65.2109 3.60699 64.9772 3.71447 64.238 3.65968C64.6509 3.53098 64.4036 3.34523 64.8775 3.36766ZM89.7304 1.6803C89.7487 1.58832 90.1909 1.63403 90.3483 1.60842C90.3305 1.70058 89.8879 1.65466 89.7304 1.6803ZM24.7787 6.93998C24.6578 7.09914 25.6702 7.04819 25.3935 6.94843C25.3379 6.92579 24.906 6.92999 24.7787 6.93998ZM29.2921 6.64014C29.421 6.58791 28.8783 6.52766 28.8894 6.64178C28.8932 6.67835 29.2753 6.64693 29.2921 6.64014ZM73.498 2.81233C73.5235 2.80562 73.8952 2.8087 73.9071 2.8153C74.165 2.95226 72.9406 2.95998 73.498 2.81233ZM34.7476 5.98857C34.2862 6.12548 35.704 6.04645 35.2612 5.96008C35.2389 5.95593 34.7695 5.98195 34.7476 5.98857ZM36.7084 5.79382C36.5975 5.80851 36.1022 5.8024 36.0959 5.84832C36.096 5.92149 36.6626 5.92313 36.7084 5.79382ZM82.7571 2.02333C82.6898 1.86123 83.3563 1.9351 83.5829 1.89605C83.6503 2.05824 82.9835 1.98418 82.7571 2.02333ZM78.6009 2.23139C81.3576 1.87899 80.7754 2.28318 78.4427 2.32562C78.4308 2.21916 78.427 2.25363 78.6009 2.23139ZM82.1486 1.9681C82.0562 2.0827 81.7389 2.07615 81.5256 2.08455C81.5579 2.00739 81.9966 1.99946 82.1486 1.9681ZM23.5562 6.81599C23.7173 6.66641 24.5059 6.76509 24.3733 6.83253C24.3413 6.84737 23.4981 6.89559 23.5562 6.81599ZM73.719 2.65119C73.6415 2.49459 74.4764 2.49362 74.543 2.52443C74.8107 2.6483 73.7831 2.61005 73.719 2.65119ZM86.6764 1.56986C86.8134 1.43152 87.2356 1.46385 87.504 1.44442C87.3904 1.56242 86.9044 1.55417 86.6764 1.56986ZM84.7314 1.62357C84.7478 1.61737 85.1229 1.59921 85.1401 1.60372C85.4565 1.70327 84.3956 1.7553 84.7314 1.62357ZM3.84957 8.33446C3.86168 8.32926 4.15467 8.31108 4.16564 8.31489C4.43745 8.41303 3.55859 8.46695 3.84957 8.33446Z" fill="#F3CCD8"/>
</svg>
